<?xml version="1.0" encoding="utf-8"?>
<!-- Generator: Adobe Illustrator 25.2.0, SVG Export Plug-In . SVG Version: 6.00 Build 0)  -->
<svg version="1.1" id="Layer_1" xmlns="http://www.w3.org/2000/svg" xmlns:xlink="http://www.w3.org/1999/xlink" x="0px" y="0px"
	 viewBox="0 0 720 70" style="enable-background:new 0 0 720 70;" xml:space="preserve">
<style type="text/css">
	.st0{fill:#0E132C;}
	.st1{fill:#F3B51B;}
	.st2{fill:#025A33;}
</style>
<g transform="translate(0.000000,1024.000000) scale(0.100000,-0.100000)">
	<path class="st0" d="M3609,10194.5c-70.5-4.7-123.4-14.8-175-33.4c-53.4-19.3-132.6-58.1-235.4-115.4c-12.8-7.2-40-21.5-60.4-31.9
		c-56.3-28.5-77.7-34.6-156-44.7c-113.3-14.6-189.4-33.9-265.3-67.5c-35.2-15.5-48-23.1-61-36.1c-12.1-11.9-19.1-22.9-25.1-39.9
		c-5.4-15.9-5.4-58.6,0.2-79.2c5.1-18.4,7.9-22.7,14.8-22.7h5.4v13.2c0,37.9,5.2,64.2,15.9,81.5c18.9,30.8,74.3,62.6,143,82.1
		c95.4,26.9,200.2,37.3,480.6,47.8c15,0.5,44.6,1.8,65.8,2.7c21.3,1.1,79.4,3.4,129,5.4c94.2,3.6,187.6,7.8,253.4,10.8
		c38.6,1.8,83.5,3.6,172.3,7.2c25.8,1.1,65.1,2.7,87.5,3.6c122.5,5.4,325.2,8.5,367.4,5.6c20.4-1.3,29.6-2.7,35.5-5.4
		c12.1-5.2,23.6-17,29.9-30.3c6.5-13.7,12.6-37.7,12.6-49.6c0-10.5,3.8-11.7,8.5-2.7c4,7.2,4.3,38.6,0.7,59
		c-7.6,43.5-20.2,60.2-50.1,67.3c-9.6,2.2-24,10.6-24,14.1c0,2,74.9,6.7,114.5,7.2l16.2,0.4l-13.5,1.3c-18.9,2-65.3,5.2-104.3,7.2
		c-30.5,1.6-41.3,3.2-37,6c0.9,0.5,19.1,2,40.4,2.9c21.3,1.1,46,2.3,54.8,2.9c29,1.8,91.8,4.5,101.7,4.5c20.4,0,6.1,2.3-33.6,5.4
		c-38.1,3.1-81.2,5.4-156,8.7c-28.1,1.3-34.5,2.3-31.6,5.1c1.3,1.3,79.9,4.7,181.5,7.9c33.2,1.1,60.6,2.2,60.8,2.3
		c0.4,0.4-24,2.3-53.9,4.7c-29.9,2.2-64.2,4.9-76.1,5.8c-11.9,0.9-44.6,2.9-72.7,4.3c-28.1,1.4-53.2,3.2-55.7,3.8l-4.9,1.3l4.1,1.6
		c2.3,0.7,27.8,2.7,56.8,4.1c28.9,1.6,65.8,3.6,82.3,4.5c16.4,0.9,30.8,1.8,32.3,1.8c1.4,0,2.2,0.4,1.8,0.7
		c-2.5,2.5-72.5,10.1-136,14.6c-42.9,3.1-52.9,4.3-54.3,6.5c-1.4,2.5,4.9,3.2,56.1,6.1c46.2,2.7,70.4,5.4,73.6,8.1
		c1.6,1.4-1.1,1.6-70.9,7.4c-34.3,2.9-71.1,4.1-143.4,5.2c-60.1,0.9-109.9,2.5-129.9,4.3C3986.9,10190.8,3673,10198.6,3609,10194.5z
		 M3719.9,10163.6c0.5-0.5-4.3-17.7-10.6-37.9c-14.8-46.9-34.6-112.6-36.3-120.1c-1.4-7.2,0.9-6.9-73.1-9.6
		c-31.2-1.1-79.9-3.1-108.2-4.5c-58.6-2.9-147-6.3-175-6.9l-18.9-0.4l-1.1,10.3c-2.5,24-22,32.8-47.3,21.6
		c-9.9-4.5-29.2-20.6-35.2-29.6l-4.9-7l-22.4,0.9c-12.3,0.5-23.1,1.6-24,2.5c-4.7,4.7,182.7,107.3,237.6,130.2
		c81.7,33.9,144.1,47.3,236.3,50.1C3679,10164.9,3718.5,10164.9,3719.9,10163.6z M3946.1,10160.2c55-2,80.6-4,92.9-7.4
		c10.5-2.9,24.7-17.5,33.2-33.7c7.9-15.3,31-75,34.8-90.2c1.8-7.8,2-9.9,0-11c-1.1-0.7-26.7-2-56.6-2.7
		c-29.9-0.7-89.8-2.7-132.9-4.7c-155.5-6.9-182.2-7.8-183.3-6.7c-1.1,1.1,0.5,8.5,18.2,84.2c4.5,19.3,9.6,43.3,11,53.2
		c1.4,9.9,3.1,19.1,3.6,20.6c0.7,2.2,10.3,2.3,63.3,1.4C3864.7,10162.5,3916.9,10161.1,3946.1,10160.2z M4134.8,10142
		c24-9.9,39.3-21.5,69.8-52.5l28.3-28.9l-5.1-11.2c-9.7-21.6-19.7-26.2-57.7-26.9l-24-0.4l-5.8,19.8c-8.7,29.8-16.4,49.4-30.1,78.3
		c-6.9,14.3-12.4,26.5-12.4,27.4C4097.8,10152.6,4116.4,10149.7,4134.8,10142z"/>
</g>
<g>
	<g>
		<path class="st1" d="M387.9,58.6c-0.8,3.8-3.7,6.6-8.8,6.6c-6.4,0-9.5-4.6-9.5-10.4c0-5.6,3.1-10.6,9.7-10.6c5.4,0,8,3.2,8.5,6.6
			h-4.4c-0.4-1.6-1.5-3.1-4.3-3.1c-3.6,0-5,3.3-5,7c0,3.4,1.2,7.1,5.1,7.1c2.9,0,3.8-1.9,4.2-3.1L387.9,58.6L387.9,58.6z"/>
		<path class="st1" d="M395.4,60.1l-1.6,4.7h-4.3l6.9-20.3h5.5l7.2,20.3h-4.6l-1.7-4.7H395.4z M401.9,56.6c-1.4-4.3-2.4-7-2.9-8.9h0
			c-0.5,2-1.5,5.2-2.7,8.9H401.9z"/>
		<path class="st1" d="M411.9,44.5h8.9c4.9,0,6.8,2.6,6.8,5.2c0,2.3-1.2,3.8-2.6,4.4c1.4,0.5,3.2,2,3.2,4.6c0,3.5-2.7,6.1-7.1,6.1
			h-9.2V44.5L411.9,44.5z M420.3,52.6c2.1,0,3-0.9,3-2.4c0-1.5-1.1-2.3-2.8-2.3h-4.2v4.6L420.3,52.6L420.3,52.6z M416.2,61.5h4
			c2.4,0,3.4-1,3.4-2.8c0-1.6-1.1-2.7-3.5-2.7h-3.9L416.2,61.5L416.2,61.5z"/>
	</g>
</g>
<g>
	<g>
		<path class="st2" d="M274,41.5h5.1V52c1.6-1.8,6.4-7.2,9.4-10.6h6.1l-9.5,9.8l9.9,13.8h-6.1l-7.3-10.5l-2.5,2.4v8.1H274V41.5z"/>
		<path class="st2" d="M311.3,60.6c0,1.7,0.1,4.1,0.2,4.6h-4.7c-0.1-0.4-0.2-1.3-0.3-1.7c-0.6,1-1.9,2.1-5,2.1
			c-4.3,0-6.1-2.8-6.1-5.6c0-4.1,3.2-5.9,8.5-5.9c0.9,0,1.9,0,2.5,0V53c0-1.3-0.5-2.5-2.7-2.5c-2.1,0-2.5,0.9-2.8,2.2h-4.7
			c0.3-3.2,2.2-5.7,7.6-5.7c4.8,0,7.3,1.9,7.3,6.1L311.3,60.6L311.3,60.6z M306.6,57.1c-0.4,0-1.4,0-2,0c-3,0-4.1,0.9-4.1,2.6
			c0,1.3,0.8,2.4,2.6,2.4c3.1,0,3.5-2.2,3.5-4.5V57.1L306.6,57.1z"/>
		<path class="st2" d="M315.8,52.2c0-1.8,0-3.3,0-4.8h4.8c0.1,0.4,0.1,2.2,0.1,3.1c0.8-2,2.7-3.5,5.7-3.5v4.7
			c-3.6-0.1-5.7,0.9-5.7,5.8v7.7h-4.9L315.8,52.2L315.8,52.2L315.8,52.2z"/>
		<path class="st2" d="M329.3,51.9c0-1.5,0-3.2,0-4.5h4.8c0.1,0.5,0.2,1.7,0.2,2.3c0.6-1.1,2-2.7,5.2-2.7c3.6,0,5.9,2.4,5.9,6.9
			v11.3h-4.9V54.4c0-2-0.7-3.4-2.8-3.4c-2.1,0-3.3,1.2-3.3,4.3v9.9h-4.9V51.9L329.3,51.9z"/>
		<path class="st2" d="M364.4,60.6c0,1.7,0.1,4.1,0.2,4.6h-4.7c-0.1-0.4-0.2-1.3-0.3-1.7c-0.6,1-1.9,2.1-5,2.1
			c-4.3,0-6.1-2.8-6.1-5.6c0-4.1,3.2-5.9,8.5-5.9c0.9,0,1.9,0,2.5,0V53c0-1.3-0.5-2.5-2.7-2.5c-2.1,0-2.5,0.9-2.8,2.2h-4.7
			c0.3-3.2,2.2-5.7,7.6-5.7c4.8,0,7.3,1.9,7.3,6.1L364.4,60.6L364.4,60.6L364.4,60.6z M359.6,57.1c-0.4,0-1.4,0-2,0
			c-3,0-4.1,0.9-4.1,2.6c0,1.3,0.8,2.4,2.6,2.4c3.1,0,3.5-2.2,3.5-4.5L359.6,57.1L359.6,57.1z"/>
	</g>
</g>
</svg>
